<svg width="48" height="48" viewBox="0 0 48 48" fill="none" xmlns="http://www.w3.org/2000/svg">
<path d="M5.13688 15.4393L14.8463 42.0325C8.05448 38.7418 3.37676 31.7779 3.37676 23.7234C3.37676 20.7675 4.00811 17.9743 5.13688 15.4393ZM37.46 22.6999C37.46 20.184 36.5608 18.443 35.786 17.0847C34.7529 15.4106 33.7867 13.9853 33.7867 12.3113C33.7867 10.4364 35.2025 8.69539 37.2017 8.69539C37.2878 8.69539 37.3739 8.70496 37.4696 8.71452C33.8441 5.39516 29.0229 3.36719 23.7234 3.36719C16.6159 3.36719 10.3599 7.0118 6.71525 12.5409C7.19355 12.56 7.64314 12.5696 8.02578 12.5696C10.1494 12.5696 13.4496 12.3113 13.4496 12.3113C14.5497 12.2443 14.6741 13.861 13.5836 13.9853C13.5836 13.9853 12.4835 14.1097 11.259 14.1766L18.6726 36.2164L23.1303 22.8625L19.964 14.1766C18.8639 14.1097 17.8308 13.9853 17.8308 13.9853C16.7307 13.9184 16.8647 12.2443 17.9552 12.3113C17.9552 12.3113 21.3128 12.5696 23.3121 12.5696C25.4357 12.5696 28.7359 12.3113 28.7359 12.3113C29.836 12.2443 29.9604 13.861 28.8698 13.9853C28.8698 13.9853 27.7698 14.1097 26.5453 14.1766L33.9015 36.0538L35.9295 29.2716C36.7904 26.4592 37.46 24.4408 37.46 22.6999ZM24.0773 25.5027L17.9743 43.2474C19.8014 43.7831 21.7241 44.0796 23.7234 44.0796C26.0957 44.0796 28.3629 43.6683 30.4769 42.9221C30.4195 42.836 30.3717 42.7404 30.3334 42.6447L24.0773 25.5027ZM41.5829 13.9566C41.669 14.6071 41.7168 15.2959 41.7168 16.0516C41.7168 18.1178 41.3342 20.4327 40.1672 23.3408L33.9493 41.3151C40.0045 37.7853 44.07 31.2326 44.07 23.7234C44.07 20.184 43.1708 16.8551 41.5829 13.9566ZM47.4468 23.7234C47.4468 36.8095 36.8 47.4468 23.7234 47.4468C10.6373 47.4468 0 36.8 0 23.7234C0 10.6373 10.6373 0 23.7234 0C36.8 0 47.4468 10.6373 47.4468 23.7234ZM46.3563 23.7234C46.3563 11.2399 36.1973 1.09051 23.7234 1.09051C11.2399 1.09051 1.09051 11.2399 1.09051 23.7234C1.09051 36.2069 11.2495 46.3563 23.7234 46.3563C36.2069 46.3563 46.3563 36.2069 46.3563 23.7234Z" fill="white"/>
</svg>
