<svg width="326" height="264" viewBox="0 0 326 264" fill="none" xmlns="http://www.w3.org/2000/svg">
<path d="M310 0H16C7.16344 0 0 7.16344 0 16V248C0 256.837 7.16345 264 16 264H310C318.837 264 326 256.837 326 248V16C326 7.16344 318.837 0 310 0Z" fill="white"/>
<path d="M101.301 70.9563C102.32 79.2537 95.8463 86.5711 87.4865 86.5711H74.8308C67.144 86.5711 60.9126 80.3397 60.9126 72.6528C60.9126 64.966 67.144 58.7346 74.8308 58.7346H87.4865C94.5172 58.7346 100.444 63.978 101.301 70.9563Z" fill="#EFEFEF"/>
<path d="M87.7408 71.1062C90.0203 71.1062 91.8682 69.2599 91.8682 66.9823C91.8682 64.7047 90.0203 62.8584 87.7408 62.8584C85.4613 62.8584 83.6134 64.7047 83.6134 66.9823C83.6134 69.2599 85.4613 71.1062 87.7408 71.1062Z" fill="#3F3D56"/>
<path d="M98.3517 50.2608C98.1923 50.1265 98.1771 49.8863 98.3194 49.734C98.653 49.3766 98.9935 49.0216 99.3365 48.6733C99.4737 48.5339 99.6965 48.5288 99.841 48.6607C99.9947 48.8012 100 49.0414 99.8541 49.1898C99.5179 49.5315 99.1845 49.8796 98.8578 50.2297C98.7241 50.373 98.5015 50.3872 98.3517 50.2608Z" fill="#3F3D56"/>
<path d="M102.373 46.6663C102.27 46.5514 102.281 46.375 102.397 46.2739C103.115 45.6485 103.86 45.043 104.619 44.4692C104.741 44.3771 104.914 44.402 105.006 44.524C105.099 44.6469 105.074 44.8216 104.951 44.9144C104.204 45.4792 103.471 46.075 102.764 46.6903C102.649 46.7908 102.474 46.7804 102.373 46.6663ZM107.812 42.611C107.73 42.4809 107.77 42.3089 107.901 42.2284C108.712 41.7299 109.548 41.2553 110.393 40.8138C110.528 40.743 110.695 40.7962 110.766 40.9318C110.836 41.0682 110.783 41.2361 110.647 41.3073C109.816 41.7419 108.993 42.2088 108.195 42.6993C108.064 42.7793 107.894 42.7402 107.812 42.611ZM113.85 39.506C113.791 39.3643 113.858 39.2014 114 39.1436C114.882 38.7856 115.785 38.4545 116.692 38.1566C116.838 38.1089 116.993 38.1888 117.041 38.3342C117.088 38.4802 117.008 38.6368 116.862 38.6847C115.969 38.9779 115.08 39.3039 114.212 39.6562C114.071 39.7136 113.909 39.6469 113.85 39.506ZM120.651 37.6347C120.502 37.6686 120.353 37.5765 120.318 37.4277C120.283 37.2785 120.375 37.1289 120.525 37.095C121.456 36.8835 122.401 36.7023 123.341 36.5549C123.492 36.5312 123.634 36.6355 123.656 36.7867C123.679 36.9382 123.575 37.0795 123.424 37.1033C122.498 37.2484 121.568 37.4267 120.651 37.6347ZM127.332 36.6806C127.179 36.6898 127.047 36.5744 127.037 36.4218C127.026 36.269 127.142 36.1367 127.295 36.1275C128.247 36.0705 129.209 36.046 130.163 36.0547C130.316 36.056 130.438 36.1822 130.436 36.3353C130.434 36.4884 130.308 36.6104 130.154 36.609C129.216 36.6005 128.269 36.6246 127.332 36.6806ZM134.079 36.8339C133.927 36.8178 133.816 36.6821 133.831 36.5297C133.846 36.3775 133.982 36.2663 134.134 36.2824C135.083 36.3827 136.037 36.517 136.977 36.6827C137.128 36.7093 137.228 36.8542 137.2 37.0049C137.172 37.1553 137.028 37.2546 136.878 37.2281C135.952 37.065 135.013 36.9328 134.079 36.8339ZM154.848 110.065C154.754 109.943 154.777 109.768 154.899 109.674C155.639 109.101 156.366 108.498 157.066 107.875C157.18 107.774 157.355 107.782 157.458 107.895C157.562 108.009 157.553 108.185 157.438 108.288C156.727 108.921 155.988 109.534 155.236 110.115C155.115 110.209 154.941 110.186 154.848 110.065ZM140.713 38.0954C140.566 38.0545 140.478 37.902 140.518 37.754C140.559 37.6065 140.711 37.5193 140.858 37.5601C141.777 37.8146 142.695 38.1033 143.595 38.4205C143.74 38.4715 143.814 38.631 143.762 38.7752C143.71 38.9188 143.551 38.993 143.407 38.9423C142.521 38.6302 141.618 38.346 140.713 38.0954ZM159.883 105.522C159.771 105.417 159.765 105.241 159.869 105.128C160.505 104.442 161.122 103.728 161.709 103C161.806 102.881 161.98 102.861 162.1 102.955C162.221 103.051 162.241 103.226 162.145 103.346C161.548 104.086 160.92 104.811 160.274 105.508C160.17 105.62 159.995 105.626 159.883 105.522ZM147.048 40.4243C146.909 40.3596 146.847 40.1946 146.911 40.055C146.975 39.9162 147.139 39.855 147.278 39.9193C148.143 40.3202 149.001 40.7542 149.836 41.213C149.97 41.287 150.018 41.4567 149.943 41.5906C149.868 41.7237 149.699 41.771 149.565 41.6975C148.743 41.2461 147.899 40.8188 147.048 40.4243ZM164.102 100.219C163.973 100.134 163.939 99.9609 164.024 99.8323C164.538 99.0519 165.03 98.2475 165.49 97.4343C165.565 97.301 165.734 97.2525 165.868 97.3265C166.003 97.4008 166.052 97.5707 165.976 97.7049C165.509 98.5312 165.009 99.3488 164.486 100.142C164.402 100.269 164.23 100.304 164.102 100.219ZM152.914 43.7508C152.787 43.6643 152.753 43.4912 152.84 43.3639C152.925 43.2374 153.097 43.2039 153.223 43.2898C154.01 43.8253 154.785 44.3926 155.534 44.9806C155.655 45.0756 155.674 45.2511 155.578 45.371C155.482 45.4901 155.308 45.5093 155.188 45.4149C154.451 44.8363 153.688 44.278 152.914 43.7508ZM167.395 94.3014C167.254 94.2383 167.192 94.073 167.254 93.9323C167.634 93.079 167.987 92.2055 168.308 91.3288C168.36 91.1847 168.519 91.1092 168.663 91.1604C168.809 91.2118 168.885 91.3714 168.832 91.5162C168.506 92.4073 168.147 93.295 167.761 94.162C167.699 94.3021 167.535 94.3642 167.395 94.3014ZM158.155 47.9847C158.043 47.8785 158.038 47.702 158.144 47.5905C158.249 47.4796 158.425 47.4746 158.535 47.5801C159.224 48.2366 159.895 48.922 160.535 49.6231C160.639 49.7368 160.629 49.9133 160.514 50.0159C160.4 50.1177 160.225 50.1081 160.122 49.9952C159.492 49.3053 158.832 48.6308 158.155 47.9847ZM169.672 87.9272C169.523 87.8879 169.434 87.7351 169.473 87.586C169.707 86.6816 169.912 85.7624 170.083 84.8463C170.111 84.6953 170.255 84.5946 170.406 84.6214C170.558 84.6483 170.659 84.7932 170.631 84.9446C170.457 85.8758 170.249 86.8101 170.011 87.7294C169.973 87.878 169.82 87.9663 169.672 87.9272ZM162.624 53.0148C162.532 52.8916 162.556 52.7166 162.679 52.6239C162.801 52.5317 162.975 52.5556 163.067 52.6781C163.637 53.4375 164.185 54.223 164.7 55.0193C164.784 55.1486 164.745 55.3212 164.615 55.4034C164.485 55.4851 164.314 55.4468 164.231 55.3182C163.724 54.5349 163.185 53.762 162.624 53.0148ZM170.866 81.2666C170.712 81.2523 170.6 81.1164 170.613 80.9631C170.695 80.0342 170.744 79.094 170.76 78.161C170.763 78.0072 170.889 77.8839 171.043 77.8856C171.196 77.8872 171.32 78.0132 171.317 78.1669C171.301 79.1153 171.251 80.071 171.168 81.0154C171.155 81.1686 171.019 81.2809 170.866 81.2666ZM166.199 58.7094C166.128 58.5725 166.181 58.4039 166.318 58.3327C166.454 58.262 166.621 58.3143 166.692 58.4503C167.127 59.2923 167.538 60.1576 167.914 61.0292C167.976 61.1706 167.909 61.3344 167.767 61.3941C167.626 61.4535 167.463 61.3874 167.402 61.2466C167.031 60.3892 166.628 59.538 166.199 58.7094ZM170.937 74.5016C170.784 74.5127 170.651 74.3974 170.639 74.2441C170.564 73.3161 170.457 72.381 170.319 71.4572C170.296 71.3049 170.4 71.1623 170.552 71.1387C170.704 71.1151 170.846 71.2189 170.869 71.3709C171.01 72.3099 171.119 73.2603 171.194 74.2037C171.206 74.3571 171.091 74.4905 170.937 74.5016ZM168.783 64.9145C168.735 64.7679 168.815 64.6103 168.961 64.5624C169.107 64.5147 169.264 64.5939 169.311 64.7399C169.602 65.6415 169.865 66.5636 170.095 67.4828C170.132 67.6322 170.04 67.7829 169.89 67.8188C169.74 67.8546 169.59 67.7628 169.553 67.6138C169.328 66.7087 169.069 65.8018 168.783 64.9145Z" fill="#3F3D56"/>
<path d="M149.786 113.963C149.708 113.793 149.76 113.592 149.909 113.479C150.266 113.21 150.622 112.933 150.974 112.652C151.17 112.496 151.461 112.558 151.574 112.782C151.657 112.946 151.614 113.146 151.471 113.262C151.111 113.551 150.747 113.836 150.381 114.114C150.18 114.266 149.891 114.192 149.786 113.963Z" fill="#3F3D56"/>
<path d="M60.9126 79.4968C60.9126 77.8598 61.5767 76.2929 62.7529 75.1544L65.6283 72.3716C67.8015 70.2682 71.2516 70.2682 73.4249 72.3715C75.5982 74.4749 79.0482 74.4749 81.2215 72.3715L84.6846 69.0197C88.8164 65.0207 95.3851 65.0517 99.479 69.0895L101.784 71.3634C103.362 72.9195 104.25 75.0431 104.25 77.2591C104.25 81.8325 100.543 85.5399 95.9697 85.5399H66.9557C63.6182 85.5399 60.9126 82.8343 60.9126 79.4968Z" fill="#6C6CE5"/>
<path d="M216.213 154.616C207.376 154.616 200.213 161.779 200.213 170.616V194.289C200.213 203.125 207.376 210.289 216.213 210.289H255.411C264.248 210.289 271.411 203.125 271.411 194.289V170.616C271.411 161.779 264.248 154.616 255.411 154.616H216.213ZM262.114 166.731C262.114 168.254 260.879 169.504 259.357 169.504C257.834 169.504 256.6 168.254 256.6 166.731C256.6 165.208 257.834 163.958 259.357 163.958C260.879 163.958 262.114 165.208 262.114 166.731Z" fill="#3F3D56"/>
<path d="M89.8045 138.118V136.06C89.8045 134.92 88.8806 133.996 87.7408 133.996C86.601 133.996 85.6771 134.92 85.6771 136.06V138.118C85.6771 139.258 86.601 140.182 87.7408 140.182C88.8806 140.182 89.8045 139.258 89.8045 138.118Z" fill="#3F3D56"/>
<path d="M157.294 171.177C158.186 170.29 159.628 170.29 160.52 171.177C161.419 172.07 161.419 173.524 160.52 174.418L159.547 175.384C158.654 176.271 157.213 176.271 156.32 175.384C155.421 174.491 155.421 173.037 156.32 172.143L157.294 171.177Z" fill="#3F3D56"/>
<path d="M143.758 67.7214C144.65 66.835 146.092 66.835 146.984 67.7214C147.884 68.6148 147.884 70.0688 146.984 70.9622L146.011 71.929C145.118 72.8154 143.677 72.8154 142.785 71.929C141.885 71.0356 141.885 69.5816 142.785 68.6882L143.758 67.7214Z" fill="#3F3D56"/>
<path d="M205.233 191.927C205.316 191.989 205.349 192.098 205.315 192.196C205.165 192.625 205.01 193.055 204.851 193.479C204.793 193.633 204.601 193.684 204.474 193.579C204.394 193.513 204.365 193.404 204.402 193.308C204.56 192.89 204.714 192.465 204.864 192.04C204.918 191.887 205.104 191.83 205.233 191.927Z" fill="#3F3D56"/>
<path d="M204.107 197.087C204.235 197.173 204.269 197.348 204.181 197.475C203.64 198.259 203.066 199.03 202.472 199.774C202.376 199.893 202.202 199.912 202.082 199.817C201.961 199.72 201.942 199.544 202.038 199.422C202.623 198.691 203.187 197.932 203.72 197.161C203.807 197.035 203.979 197.002 204.107 197.087ZM199.829 202.364C199.942 202.471 199.946 202.648 199.839 202.759C199.174 203.443 198.479 204.11 197.769 204.747C197.655 204.849 197.48 204.839 197.378 204.725C197.274 204.61 197.284 204.433 197.4 204.329C198.099 203.703 198.782 203.047 199.436 202.374C199.543 202.264 199.718 202.26 199.829 202.364ZM194.731 206.869C194.825 206.992 194.8 207.168 194.676 207.259C193.907 207.824 193.111 208.369 192.303 208.882C192.174 208.964 192.004 208.925 191.922 208.796C191.839 208.666 191.878 208.493 192.008 208.41C192.803 207.905 193.587 207.369 194.343 206.813C194.466 206.723 194.639 206.747 194.731 206.869ZM188.584 210.366C188.72 210.297 188.887 210.349 188.958 210.484C189.03 210.62 188.977 210.789 188.84 210.859C187.986 211.295 187.112 211.704 186.233 212.08C186.093 212.14 185.931 212.074 185.871 211.934C185.81 211.792 185.877 211.628 186.018 211.568C186.883 211.198 187.744 210.795 188.584 210.366ZM182.322 212.944C182.467 212.898 182.623 212.977 182.671 213.122C182.72 213.268 182.64 213.425 182.494 213.472C181.581 213.763 180.65 214.025 179.719 214.253C179.571 214.289 179.421 214.197 179.385 214.049C179.349 213.899 179.442 213.749 179.591 213.713C180.507 213.488 181.423 213.231 182.322 212.944ZM175.716 214.465C175.868 214.443 176.009 214.547 176.032 214.698C176.056 214.85 175.951 214.992 175.8 215.014C174.85 215.152 173.887 215.257 172.93 215.329C172.777 215.341 172.645 215.226 172.634 215.073C172.623 214.92 172.739 214.787 172.892 214.776C173.834 214.705 174.782 214.601 175.716 214.465ZM137.14 148.6C137.262 148.695 137.283 148.871 137.188 148.994C136.611 149.731 136.055 150.495 135.531 151.272C135.445 151.399 135.273 151.434 135.145 151.35C135.015 151.265 134.979 151.091 135.066 150.962C135.599 150.173 136.164 149.396 136.75 148.647C136.845 148.526 137.019 148.506 137.14 148.6ZM168.943 214.884C169.097 214.887 169.219 215.013 169.217 215.166C169.215 215.319 169.089 215.442 168.936 215.439C167.977 215.419 167.01 215.366 166.054 215.281C165.901 215.268 165.789 215.132 165.804 214.979C165.819 214.827 165.954 214.716 166.107 214.729C167.048 214.813 168 214.865 168.943 214.884ZM133.378 154.25C133.515 154.324 133.564 154.495 133.49 154.631C133.044 155.452 132.623 156.297 132.234 157.147C132.17 157.287 132.006 157.35 131.866 157.288C131.724 157.225 131.66 157.059 131.724 156.918C132.119 156.054 132.548 155.196 133.002 154.361C133.075 154.226 133.243 154.177 133.378 154.25ZM162.194 214.193C162.345 214.221 162.446 214.366 162.418 214.517C162.391 214.668 162.247 214.768 162.097 214.74C161.154 214.565 160.209 214.356 159.28 214.118C159.132 214.079 159.043 213.927 159.083 213.778C159.123 213.631 159.274 213.543 159.422 213.581C160.336 213.816 161.266 214.021 162.194 214.193ZM130.602 160.436C130.749 160.486 130.826 160.647 130.775 160.793C130.47 161.676 130.194 162.577 129.95 163.478C129.91 163.627 129.758 163.716 129.609 163.678C129.459 163.639 129.369 163.486 129.409 163.336C129.657 162.42 129.938 161.504 130.248 160.607C130.298 160.462 130.457 160.385 130.602 160.436ZM155.65 212.42C155.795 212.472 155.871 212.631 155.819 212.776C155.767 212.92 155.609 212.995 155.465 212.943C154.565 212.618 153.667 212.26 152.791 211.875C152.65 211.813 152.587 211.647 152.651 211.507C152.714 211.368 152.878 211.306 153.018 211.367C153.88 211.747 154.764 212.1 155.65 212.42ZM128.882 166.988C129.034 167.015 129.136 167.16 129.111 167.313C128.955 168.233 128.831 169.166 128.739 170.095C128.724 170.248 128.588 170.362 128.434 170.348C128.28 170.334 128.166 170.198 128.182 170.044C128.275 169.1 128.402 168.151 128.56 167.216C128.585 167.064 128.73 166.962 128.882 166.988ZM149.488 209.611C149.623 209.686 149.671 209.856 149.596 209.991C149.522 210.124 149.353 210.172 149.22 210.098C148.385 209.631 147.559 209.133 146.76 208.611C146.63 208.526 146.596 208.352 146.682 208.224C146.767 208.098 146.939 208.064 147.067 208.147C147.854 208.66 148.666 209.151 149.488 209.611ZM128.264 173.732C128.419 173.733 128.543 173.86 128.543 174.014C128.542 174.948 128.573 175.889 128.636 176.819C128.647 176.973 128.531 177.108 128.377 177.119C128.223 177.131 128.089 177.015 128.078 176.861C128.014 175.916 127.982 174.959 127.983 174.01C127.983 173.855 128.11 173.731 128.264 173.732ZM143.876 205.839C143.997 205.936 144.017 206.112 143.92 206.233C143.825 206.352 143.651 206.372 143.531 206.276C142.786 205.681 142.055 205.055 141.354 204.41C141.24 204.305 141.234 204.127 141.341 204.015C141.446 203.904 141.621 203.899 141.734 204.002C142.424 204.637 143.143 205.253 143.876 205.839ZM128.773 180.485C128.925 180.461 129.068 180.565 129.094 180.717C129.247 181.638 129.435 182.561 129.653 183.469C129.689 183.619 129.597 183.771 129.446 183.808C129.297 183.844 129.146 183.753 129.11 183.603C128.888 182.68 128.697 181.741 128.541 180.806C128.516 180.653 128.62 180.509 128.773 180.485ZM138.969 201.202C139.072 201.317 139.063 201.495 138.947 201.598C138.833 201.7 138.658 201.691 138.556 201.577C137.921 200.868 137.304 200.13 136.719 199.378C136.624 199.256 136.648 199.08 136.771 198.986C136.894 198.894 137.067 198.918 137.161 199.039C137.737 199.778 138.344 200.504 138.969 201.202ZM130.4 187.062C130.546 187.014 130.703 187.092 130.754 187.238C131.058 188.119 131.397 188.999 131.763 189.86C131.824 190.003 131.758 190.168 131.615 190.228C131.474 190.289 131.31 190.224 131.25 190.082C130.878 189.207 130.533 188.312 130.224 187.417C130.173 187.27 130.253 187.111 130.4 187.062ZM134.898 195.824C134.981 195.955 134.943 196.129 134.812 196.211C134.683 196.294 134.511 196.256 134.429 196.126C133.92 195.324 133.433 194.495 132.979 193.661C132.905 193.525 132.957 193.355 133.095 193.282C133.23 193.211 133.398 193.263 133.472 193.398C133.918 194.219 134.397 195.034 134.898 195.824Z" fill="#3F3D56"/>
<path d="M140.103 143.528C140.247 143.672 140.246 143.906 140.101 144.049C139.759 144.386 139.42 144.73 139.087 145.077C138.949 145.221 138.722 145.229 138.575 145.094C138.425 144.956 138.416 144.722 138.557 144.575C138.897 144.222 139.243 143.87 139.592 143.526C139.734 143.386 139.962 143.388 140.103 143.528Z" fill="#3F3D56"/>
<path d="M261.003 157.587C260.898 157.654 260.759 157.62 260.703 157.509C260.393 156.897 259.506 154.884 259.162 151.331C258.785 147.434 259.027 140.865 262.327 131.703C268.184 115.441 261.802 102.122 260.908 100.39C260.853 100.284 260.89 100.152 260.993 100.09C261.099 100.026 261.236 100.062 261.293 100.172C261.721 100.997 263.348 104.336 264.365 109.266C265.914 116.804 265.35 124.642 262.738 131.861C257.011 147.764 260.448 155.981 261.089 157.287C261.141 157.395 261.104 157.523 261.003 157.587Z" fill="#3F3D56"/>
<path d="M259.029 98.9427C260.738 98.9427 262.124 97.558 262.124 95.8498C262.124 94.1416 260.738 92.7568 259.029 92.7568C257.319 92.7568 255.933 94.1416 255.933 95.8498C255.933 97.558 257.319 98.9427 259.029 98.9427Z" fill="#6C6CE5"/>
<path d="M267.284 110.284C268.993 110.284 270.379 108.899 270.379 107.191C270.379 105.482 268.993 104.098 267.284 104.098C265.574 104.098 264.188 105.482 264.188 107.191C264.188 108.899 265.574 110.284 267.284 110.284Z" fill="#3F3D56"/>
<path d="M261.092 117.5C262.802 117.5 264.188 116.116 264.188 114.407C264.188 112.699 262.802 111.314 261.092 111.314C259.383 111.314 257.997 112.699 257.997 114.407C257.997 116.116 259.383 117.5 261.092 117.5Z" fill="#6C6CE5"/>
<path d="M269.347 123.686C271.057 123.686 272.443 122.302 272.443 120.593C272.443 118.885 271.057 117.5 269.347 117.5C267.638 117.5 266.252 118.885 266.252 120.593C266.252 122.302 267.638 123.686 269.347 123.686Z" fill="#6C6CE5"/>
<path d="M259.029 133.996C260.738 133.996 262.124 132.611 262.124 130.903C262.124 129.195 260.738 127.81 259.029 127.81C257.319 127.81 255.933 129.195 255.933 130.903C255.933 132.611 257.319 133.996 259.029 133.996Z" fill="#3F3D56"/>
<path d="M266.056 153.033C265.173 155.096 262.964 154.775 263.59 152.621C263.689 152.278 263.809 151.928 263.953 151.573C264.879 149.279 267.029 150.758 266.056 153.033Z" fill="#3F3D56"/>
<path d="M254.921 154.285C256.865 155.58 258.688 154.048 256.95 152.488C256.645 152.215 256.312 151.948 255.948 151.694C253.793 150.192 252.735 152.829 254.921 154.285Z" fill="#3F3D56"/>
<path d="M164.614 204.103C163.189 204.103 162.034 202.949 162.034 201.525C162.034 200.102 163.189 198.948 164.614 198.948C166.039 198.948 167.194 200.102 167.194 201.525C167.192 202.948 166.038 204.101 164.614 204.103ZM164.614 199.377C163.427 199.377 162.464 200.339 162.464 201.525C162.464 202.711 163.427 203.673 164.614 203.673C165.801 203.673 166.764 202.711 166.764 201.525C166.762 200.34 165.801 199.379 164.614 199.377Z" fill="#2F2E41"/>
<path d="M194.022 55.6415C194.022 56.7803 193.097 57.7035 191.958 57.7035C190.819 57.7035 189.894 56.7803 189.894 55.6415C189.894 54.5028 190.819 53.5796 191.958 53.5796C193.097 53.5796 194.022 54.5028 194.022 55.6415ZM190.212 55.6415C190.212 56.6051 190.995 57.3863 191.958 57.3863C192.922 57.3863 193.704 56.6051 193.704 55.6415C193.704 54.678 192.922 53.8968 191.958 53.8968C190.995 53.8968 190.212 54.678 190.212 55.6415Z" fill="#3F3D56"/>
<path d="M72.7237 180.961C71.8397 181.785 70.4553 181.737 69.6307 180.853C68.8052 179.969 68.8535 178.583 69.7386 177.758C70.6226 176.934 72.0069 176.982 72.8315 177.865C73.6571 178.75 73.6087 180.136 72.7237 180.961ZM69.9682 178.004C69.2193 178.702 69.1784 179.875 69.877 180.623C70.5747 181.371 71.7461 181.412 72.4941 180.714C73.243 180.017 73.2839 178.843 72.5853 178.095C71.8876 177.348 70.7162 177.307 69.9682 178.004Z" fill="#2F2E41"/>
<path d="M183.645 131.378C188.083 141.924 180.339 153.585 168.897 153.585H126.442C117.605 153.585 110.442 146.421 110.442 137.585V136.593C110.442 127.757 117.605 120.593 126.442 120.593H168.48C174.919 120.593 180.73 124.453 183.227 130.387L183.645 131.378Z" fill="#EFEFEF"/>
<path d="M184.731 131.403C189.147 141.946 181.404 153.585 169.974 153.585H117.155C108.318 153.585 101.155 146.421 101.155 137.585V129.376C101.155 120.54 108.318 113.376 117.155 113.376H177.014C177.115 113.376 177.206 113.437 177.245 113.53L184.731 131.403ZM101.659 137.088C101.659 145.925 108.822 153.088 117.659 153.088H169.22C180.65 153.088 188.394 141.45 183.978 130.907L180.956 123.692C178.465 117.744 172.647 113.873 166.198 113.873H117.659C108.822 113.873 101.659 121.036 101.659 129.873V137.088Z" fill="#3F3D56"/>
<path d="M163.583 125.748H125.402C124.548 125.748 123.856 126.441 123.856 127.295C123.856 128.149 124.548 128.841 125.402 128.841H163.583C164.438 128.841 165.13 128.149 165.13 127.295C165.13 126.441 164.438 125.748 163.583 125.748Z" fill="#6C6CE5"/>
<path d="M163.583 133.996H125.402C124.548 133.996 123.856 134.688 123.856 135.543C123.856 136.397 124.548 137.089 125.402 137.089H163.583C164.438 137.089 165.13 136.397 165.13 135.543C165.13 134.688 164.438 133.996 163.583 133.996Z" fill="#6C6CE5"/>
<path d="M163.583 141.213H125.402C124.548 141.213 123.856 141.905 123.856 142.759C123.856 143.613 124.548 144.306 125.402 144.306H163.583C164.438 144.306 165.13 143.613 165.13 142.759C165.13 141.905 164.438 141.213 163.583 141.213Z" fill="#6C6CE5"/>
<path d="M114.901 69.1687C118.745 79.6136 111.016 90.695 99.886 90.695H70.7214C61.8849 90.695 54.7214 83.5316 54.7214 74.695V65.4558C54.7214 56.6193 61.8849 49.4558 70.7214 49.4558H107.488C107.583 49.4558 107.668 49.5151 107.701 49.6044L114.901 69.1687ZM55.1763 74.2418C55.1763 83.0784 62.3398 90.2418 71.1763 90.2418H99.2347C110.365 90.2418 118.094 79.1604 114.25 68.7155L111.183 60.3827C108.867 54.09 102.873 49.909 96.1679 49.909H71.1763C62.3397 49.909 55.1763 57.0724 55.1763 65.909V74.2418Z" fill="#3F3D56"/>
<path d="M104.25 70.5908C104.25 79.4164 97.0959 86.571 88.2703 86.571H76.8928C68.0671 86.571 60.9126 79.4164 60.9126 70.5908C60.9126 61.7652 68.0671 54.6106 76.8928 54.6106H88.2703C97.0959 54.6106 104.25 61.7652 104.25 70.5908ZM61.3712 70.5908C61.3712 79.166 68.3228 86.1176 76.898 86.1176H88.265C96.8403 86.1176 103.792 79.166 103.792 70.5908C103.792 62.0155 96.8403 55.0639 88.265 55.0639H76.898C68.3228 55.0639 61.3712 62.0155 61.3712 70.5908Z" fill="#3F3D56"/>
<path d="M122.824 95.8499C125.103 95.8499 126.951 94.0035 126.951 91.726C126.951 89.4484 125.103 87.6021 122.824 87.6021C120.544 87.6021 118.696 89.4484 118.696 91.726C118.696 94.0035 120.544 95.8499 122.824 95.8499Z" fill="#6C6CE5"/>
<path d="M192.99 157.709C195.27 157.709 197.117 155.862 197.117 153.585C197.117 151.307 195.27 149.461 192.99 149.461C190.711 149.461 188.863 151.307 188.863 153.585C188.863 155.862 190.711 157.709 192.99 157.709Z" fill="#6C6CE5"/>
<path d="M222.398 96.8808C226.102 96.8808 229.105 93.8805 229.105 90.1794C229.105 86.4783 226.102 83.478 222.398 83.478C218.694 83.478 215.691 86.4783 215.691 90.1794C215.691 93.8805 218.694 96.8808 222.398 96.8808Z" fill="#A0616A"/>
<path d="M222.511 93.0311C219.994 93.1835 218.576 95.9788 218 98.434C217.792 99.3202 217.323 100.139 216.425 100.71C214.875 101.696 216.019 104.161 217.636 106.467C219.633 109.315 223.704 109.222 226.089 106.69L227.813 104.861C229.559 103.008 229.128 99.9411 227.911 97.7044C227.82 97.5366 227.732 97.3634 227.65 97.185C226.679 95.0757 224.829 92.8907 222.511 93.0311Z" fill="#A0616A"/>
<path d="M205.919 118.462C203.691 117.027 200.721 118.33 200.266 120.941L199.374 126.074C199.255 126.754 199.038 127.412 198.759 128.044C197.825 130.156 195.718 135.452 195.718 140.218C195.718 146.337 195.139 147.505 195.138 147.507C195.138 147.507 195.138 147.507 195.138 147.507C195.138 147.508 189.343 159.168 193.4 159.751C196.446 160.189 198.186 153.226 198.863 149.733C199.111 148.452 199.441 147.191 199.908 145.973C201.169 142.691 203.729 135.751 204.485 131.642C204.717 130.384 204.94 129.112 205.407 127.92L207.363 122.926C208.006 121.284 207.402 119.416 205.919 118.462Z" fill="#A0616A"/>
<path d="M238.357 119.113C240.504 117.897 243.18 119.365 243.31 121.83L243.52 125.827C243.549 126.39 243.66 126.942 243.798 127.488C244.255 129.295 245.133 134.062 244.1 141.255L243.361 147.485C243.141 149.344 243.264 151.224 243.585 153.069C244.113 156.114 244.616 160.6 243.028 160.792C241.079 161.028 238.779 156.692 238.818 153.019C238.835 151.375 239.276 149.739 239.276 148.095C239.276 147.618 239.249 147.148 239.195 146.674C238.948 144.483 238.213 137.704 238.107 133.818C238.063 132.177 238.063 130.508 237.789 128.889L236.717 122.558C236.484 121.179 237.139 119.801 238.357 119.113Z" fill="#A0616A"/>
<path d="M208.23 194.581C206.674 195.099 205.865 196.813 206.454 198.344L207.382 200.753C207.9 202.098 209.301 202.885 210.719 202.628C212.689 202.27 213.763 200.121 212.867 198.331L211.712 196.023C211.072 194.743 209.588 194.129 208.23 194.581Z" fill="#A0616A"/>
<path d="M236.757 202.948C234.825 202.473 232.929 203.846 232.778 205.829L232.482 209.696C232.33 211.684 233.903 213.382 235.897 213.382C237.828 213.382 239.377 211.786 239.32 209.856L239.206 205.98C239.164 204.534 238.162 203.294 236.757 202.948Z" fill="#A0616A"/>
<path d="M211.153 135.31C210.282 135.523 209.915 136.39 209.741 137.269C209.354 139.213 207.841 140.827 207.46 142.772C207.435 142.9 207.421 143.029 207.421 143.158C207.421 143.703 207.339 144.124 207.237 144.438C207.071 144.951 206.513 145.272 206.273 145.756C206.173 145.967 206.053 146.168 205.915 146.356C205.78 146.54 205.626 146.696 205.469 146.861C203.457 148.973 189.022 164.536 192.495 172.596C194.625 177.538 197.877 185.395 200.277 191.229C202.051 195.543 207.817 198.46 211.176 195.223C211.908 194.517 211.554 193.751 211.216 192.792L206.322 178.908C204.708 174.33 205.811 169.233 209.173 165.731C214.702 159.974 224.087 160.595 228.809 167.03L229.588 168.093C231.582 170.81 232.524 174.148 232.276 177.509C231.626 186.322 230.546 203.263 231.819 203.477C233.541 203.765 243.013 205.785 243.3 204.92C243.587 204.054 245.023 165.669 244.449 164.226C244.007 163.116 238.981 152.616 236.684 147.827C235.992 146.385 237.454 144.049 236.125 143.158C232.825 140.947 231.313 136.667 227.376 136.141C221.77 135.391 214.098 134.587 211.153 135.31Z" fill="#2F2E41"/>
<path d="M226.209 102.849C224.055 104.153 221.354 104.145 219.208 102.829L218.779 102.566C217.512 101.789 216.035 101.357 214.57 101.614C213.729 101.762 212.888 101.997 212.516 102.367C209.557 105.31 206.494 108.277 206.691 112.445C207.167 122.508 208.235 139.948 209.897 139.123C212.225 137.965 210.479 137.097 212.225 137.965C213.971 138.833 234.635 139.123 234.926 139.123C235.488 139.123 235.527 138.255 235.564 137.694L236.574 122.371C236.639 121.386 236.795 120.408 237.041 119.451L238.582 113.436C239.667 109.207 237.567 104.808 233.597 102.992L232.492 102.486C230.466 101.559 228.114 101.695 226.209 102.849Z" fill="#D0CDE1"/>
<path d="M208.468 107.077C208.468 106.001 207.595 105.129 206.519 105.129C206.34 105.129 206.163 105.152 205.998 105.222C205.24 105.541 202.958 106.789 201.812 110.588C200.426 115.185 199.871 117.196 200.426 117.771C203.333 120.784 208.468 117.429 208.468 113.241V107.077Z" fill="#D0CDE1"/>
<path d="M236.023 107.634C236.198 106.227 237.443 105.208 238.857 105.308C239.852 105.379 240.724 105.998 241.103 106.921C242.464 110.237 245.482 117.945 244.323 118.408C242.844 118.998 234.264 123.424 234.264 122.539C234.264 121.87 235.444 112.291 236.023 107.634Z" fill="#D0CDE1"/>
<path d="M209.853 200.208C209.521 199.949 209.179 199.694 208.782 199.552C207.77 199.192 206.64 199.521 205.98 200.369L202.699 204.586C202.082 205.379 201.346 206.065 200.56 206.69C198.337 208.46 194.326 212.212 200.084 212.347C200.64 212.36 200.569 212.403 201.117 212.31C205.756 211.525 211.551 209.078 215.665 206.795C216.308 206.439 216.723 206.09 216.723 205.782C216.723 204.415 214.842 200.771 214.231 200.68C213.673 200.596 211.513 201.497 209.853 200.208Z" fill="#2F2E41"/>
<path d="M241.098 216.561C240.014 212.851 236.635 210.183 232.773 210.318C232.255 210.336 231.931 210.364 231.941 210.406C231.988 210.604 229.863 215.143 230.167 216.845C230.47 218.547 233.203 220.816 232.596 221.951C231.988 223.085 234.417 226.489 239.276 226.773C241.764 226.918 242.818 225.65 243.255 224.377C243.784 222.836 243.186 221.194 242.516 219.708L241.098 216.561Z" fill="#2F2E41"/>
<path d="M217.405 83.1648C217.048 83.456 216.675 83.7293 216.288 83.9834C215.8 84.3711 215.349 84.7998 214.941 85.2645L214.481 85.7583C214.089 86.1785 213.673 86.658 213.69 87.2212C213.696 87.4301 213.763 87.6329 213.789 87.8404C213.893 88.6637 213.368 89.5685 213.801 90.2869C213.926 90.4946 214.119 90.657 214.257 90.8571C214.536 91.2654 214.952 91.7056 215.255 91.3149C215.348 91.1955 215.421 91.0598 215.468 90.9215C215.614 90.4985 215.594 90.0415 215.665 89.6012C215.736 89.1609 215.936 88.6948 216.353 88.4988C217.245 88.0805 218.268 89.1679 219.219 88.8969C219.883 88.7077 220.234 87.9191 220.913 87.7869C221.399 87.6923 221.866 87.9688 222.318 88.1649C222.77 88.3609 223.379 88.4516 223.698 88.0883C223.91 87.8477 223.932 87.4622 224.213 87.2987C224.549 87.1028 224.97 87.3756 225.224 87.663C225.479 87.9505 225.76 88.302 226.153 88.2915C226.675 88.2776 227.075 87.612 227.57 87.7699C228.129 87.9482 227.872 88.805 228.211 89.2665C228.406 89.5317 228.746 89.606 229.099 89.6062C229.428 89.6063 229.825 89.6442 230.032 89.3892C230.233 89.142 230.095 88.7754 230.07 88.4577L229.901 86.3181C229.9 86.1376 229.859 85.9594 229.78 85.7955C229.637 85.5464 229.339 85.4203 229.137 85.2118C228.712 84.7735 228.733 84.0052 228.204 83.6865C227.93 83.521 227.571 83.526 227.299 83.3576C226.949 83.1416 226.837 82.7091 226.592 82.3871C226.242 81.9267 225.63 81.7133 225.039 81.6547C224.447 81.5962 223.851 81.6668 223.256 81.6482C222.048 81.6105 220.84 81.2848 219.626 81.4754C218.567 81.6418 218.122 82.5026 217.405 83.1648Z" fill="#2F2E41"/>
</svg>
